<?xml version="1.0" encoding="UTF-8" standalone="no"?>
<svg
   width="800"
   height="800"
   viewBox="0 0 24 24"
   fill="none"
   version="1.1"
   id="svg1"
   xml:space="preserve"
   xmlns="http://www.w3.org/2000/svg"
   xmlns:svg="http://www.w3.org/2000/svg"><defs
     id="defs1" /><path
     fill="#fc7f7f"
     d="M 7.5793064,4.7383548 A 2.6923906,2.6923906 0 0 0 4.8869152,7.4307458 V 20.892698 a 2.6923906,2.6923906 0 0 0 2.6923912,2.692391 H 21.041258 a 2.6923906,2.6923906 0 0 0 2.692391,-2.692391 V 7.4307458 a 2.6923906,2.6923906 0 0 0 -2.692391,-2.692391 z m 0,1.3461954 H 21.041258 a 1.3461953,1.3461953 0 0 1 1.346197,1.3461956 V 20.892698 a 1.3461953,1.3461953 0 0 1 -1.346197,1.346195 H 7.5793064 A 1.3461953,1.3461953 0 0 1 6.2331101,20.892698 V 7.4307458 A 1.3461953,1.3461953 0 0 1 7.5793064,6.0845502 Z m 0,1.3461956 V 10.123136 H 10.271696 V 7.4307458 Z m 10.7695606,0 v 2.6923902 h 2.692391 V 7.4307458 Z M 7.5793064,18.200308 v 2.69239 h 2.6923896 v -2.69239 z m 10.7695606,0 v 2.69239 h 2.692391 v -2.69239 z"
     id="path1"
     style="fill:#ff5555;fill-opacity:1;stroke-width:1.34618" /><path
     style="fill:#808080;fill-opacity:1;stroke:#ff0000;stroke-width:0.0233886;stroke-opacity:0"
     d="M 6.5824985,12.322699 C 6.5353964,12.310155 6.4546569,12.26377 6.4030775,12.21962 6.2185993,12.061714 6.2336148,12.613231 6.2407581,6.2576329 l 0.00639,-5.68340717 0.056285,-0.090544 c 0.086733,-0.1395237 0.2395688,-0.2252012 0.4017268,-0.2252012 0.1115848,0 0.151237,0.012291 0.2452183,0.076013 0.064737,0.043893 0.1325642,0.1155449 0.1605157,0.1695667 l 0.048406,0.093554 0.00599,5.65699217 c 0.00419,3.9574846 -0.00152,5.6848746 -0.019002,5.7498016 -0.035416,0.131527 -0.1942016,0.283941 -0.3319439,0.318625 -0.1219798,0.03072 -0.1152124,0.03072 -0.2318425,-3.35e-4 z"
     id="path3" /><path
     style="fill:#808080;fill-opacity:1;stroke:#ff0000;stroke-width:0.0233886;stroke-opacity:0"
     d="m 3.6510216,10.685914 c -0.076764,-0.04235 -0.1771648,-0.143538 -0.2157219,-0.217408 -0.03212,-0.06154 -0.036631,-0.5128744 -0.040623,-4.0651764 -0.00247,-2.1977738 0.0044,-4.0609791 0.015271,-4.1404564 0.032781,-0.2397013 0.1966826,-0.3905854 0.4242829,-0.3905854 0.2127986,0 0.3989404,0.1480982 0.4244171,0.3376751 0.00702,0.052257 0.015265,1.9259194 0.018316,4.1636946 l 0.00555,4.0686835 -0.093469,0.102698 c -0.051408,0.05648 -0.121928,0.117414 -0.1567109,0.135401 -0.07491,0.03874 -0.314777,0.04218 -0.3813096,0.0055 z"
     id="path4" /><path
     style="fill:#808080;fill-opacity:1;stroke:#ff0000;stroke-width:0.0233886;stroke-opacity:0"
     d="M 0.76730572,9.0976596 C 0.65652372,9.0413666 0.57266592,8.9428306 0.53188602,8.8210316 0.51265982,8.7636076 0.50526752,8.0585218 0.50526752,6.2821234 V 3.8227183 l 0.0607323,-0.1218739 c 0.1046007,-0.2099063 0.3464976,-0.3088665 0.55776598,-0.2281823 0.12498,0.04773 0.2580648,0.1884378 0.2933781,0.3101822 0.018364,0.063311 0.023848,0.8045503 0.018916,2.5566483 -0.0069,2.450361 -0.00729,2.468137 -0.055806,2.561041 -0.1122129,0.214859 -0.39749398,0.306606 -0.61294818,0.197126 z"
     id="path5" /><path
     style="fill:#808080;fill-opacity:1;stroke:#ff0000;stroke-width:0.0233886;stroke-opacity:0"
     d="m 9.3812058,10.704558 c -0.088848,-0.04138 -0.2118402,-0.170372 -0.2441449,-0.256057 -0.017159,-0.04551 -0.024823,-1.3292594 -0.024823,-4.1582398 0,-3.9766286 0.00126,-4.0948525 0.044501,-4.1791729 0.1782472,-0.3475756 0.6450156,-0.3473614 0.8233426,3.77e-4 0.04357,0.084961 0.044541,0.1909368 0.03865,4.2136093 l -0.006,4.1264564 -0.071521,0.08836 c -0.118999,0.147024 -0.182237,0.181973 -0.343879,0.19005 -0.09051,0.0045 -0.172572,-0.0051 -0.2160916,-0.02539 z"
     id="path6" /><path
     style="fill:#808080;fill-opacity:1;stroke:#ff0000;stroke-width:0.0233886;stroke-opacity:0"
     d="m 12.227675,9.0976596 c -0.110782,-0.05629 -0.19464,-0.154829 -0.23542,-0.276628 -0.01923,-0.05742 -0.02662,-0.7625098 -0.02662,-2.5389082 V 3.8227183 l 0.06073,-0.1218739 c 0.1046,-0.2099063 0.346497,-0.3088665 0.557766,-0.2281823 0.12498,0.04773 0.258064,0.1884378 0.293378,0.3101822 0.01836,0.063311 0.02385,0.8045503 0.01892,2.5566483 -0.0069,2.450361 -0.0073,2.468137 -0.05581,2.561041 -0.112212,0.214859 -0.397494,0.306606 -0.612947,0.197126 z"
     id="path7" /></svg>
