<?xml version="1.0" encoding="UTF-8" standalone="no"?>
<svg
   width="800"
   height="800"
   viewBox="0 0 24 24"
   fill="none"
   version="1.1"
   id="svg1"
   xml:space="preserve"
   xmlns="http://www.w3.org/2000/svg"
   xmlns:svg="http://www.w3.org/2000/svg"><defs
     id="defs1" /><g
     fill="none"
     stroke="#e0e0e0"
     id="g3"
     transform="matrix(1.2814226,0,0,1.2814226,1.7608392,2.9842166)"><path
       stroke-linejoin="round"
       stroke-opacity="0.6"
       stroke-width="2"
       d="m 14,8.5 v 4 L 8,15 2,12.5 v -4 M 8,11 v 4"
       id="path1-1" /><path
       stroke-linejoin="round"
       stroke-width="2"
       d="M 8,6 14,8.5 8,11 2,8.5 Z"
       id="path2" /></g><path
     style="fill:#999999;fill-opacity:1;stroke:#ff0000;stroke-width:0.0233886;stroke-opacity:0"
     d="m 11.806149,12.610617 c -0.0471,-0.01254 -0.127842,-0.05893 -0.179421,-0.103079 -0.184478,-0.157906 -0.169463,0.393611 -0.16232,-5.9619874 l 0.0064,-5.68340713 0.05628,-0.090544 c 0.08673,-0.1395237 0.239569,-0.2252012 0.401727,-0.2252012 0.111585,0 0.151237,0.012291 0.245219,0.076013 0.06474,0.043893 0.132564,0.1155449 0.160515,0.1695667 l 0.04841,0.093554 0.006,5.65699213 c 0.0042,3.9574849 -0.0015,5.6848749 -0.019,5.7498019 -0.03542,0.131527 -0.194201,0.283941 -0.331944,0.318625 -0.121979,0.03072 -0.115212,0.03072 -0.231842,-3.35e-4 z"
     id="path3" /><path
     style="fill:#999999;fill-opacity:1;stroke:#ff0000;stroke-width:0.0233886;stroke-opacity:0"
     d="m 8.874672,10.973832 c -0.076764,-0.04235 -0.1771648,-0.143538 -0.2157219,-0.217408 -0.03212,-0.06154 -0.036631,-0.512875 -0.040623,-4.0651767 -0.00247,-2.1977738 0.0044,-4.0609791 0.015271,-4.1404564 0.032781,-0.2397013 0.1966826,-0.3905854 0.4242829,-0.3905854 0.2127986,0 0.3989404,0.1480982 0.4244171,0.3376751 0.00702,0.052257 0.015265,1.9259194 0.018316,4.1636946 l 0.00555,4.0686838 -0.093469,0.102698 c -0.051408,0.05648 -0.121928,0.117414 -0.1567109,0.135401 -0.07491,0.03874 -0.314777,0.04218 -0.3813096,0.0055 z"
     id="path4" /><path
     style="fill:#999999;fill-opacity:1;stroke:#ff0000;stroke-width:0.0233886;stroke-opacity:0"
     d="M 5.9909561,9.3855773 C 5.8801741,9.3292843 5.7963163,9.2307483 5.7555364,9.1089493 5.7363102,9.0515253 5.7289179,8.3464395 5.7289179,6.5700411 V 4.110636 L 5.7896499,3.9887621 C 5.8942506,3.7788558 6.1361475,3.6798956 6.3474159,3.7605798 6.4723959,3.8083098 6.6054807,3.9490176 6.640794,4.070762 6.659158,4.134073 6.664642,4.8753123 6.65971,6.6274103 6.65281,9.0777713 6.65242,9.0955473 6.603904,9.1884513 6.4916911,9.4033103 6.20641,9.4950573 5.9909561,9.3855773 Z"
     id="path5" /><path
     style="fill:#999999;fill-opacity:1;stroke:#ff0000;stroke-width:0.0233886;stroke-opacity:0"
     d="m 14.604856,10.992476 c -0.08885,-0.04138 -0.21184,-0.170372 -0.244145,-0.256057 -0.01716,-0.04551 -0.02482,-1.3292597 -0.02482,-4.1582401 0,-3.9766286 0.0013,-4.0948525 0.0445,-4.1791729 0.178247,-0.3475756 0.645016,-0.3473614 0.823343,3.77e-4 0.04357,0.084961 0.04454,0.1909368 0.03865,4.2136093 l -0.006,4.1264567 -0.07152,0.08836 c -0.118999,0.147024 -0.182237,0.181973 -0.343879,0.19005 -0.09051,0.0045 -0.172572,-0.0051 -0.216092,-0.02539 z"
     id="path6" /><path
     style="fill:#999999;fill-opacity:1;stroke:#ff0000;stroke-width:0.0233886;stroke-opacity:0"
     d="m 17.451325,9.3855773 c -0.110782,-0.05629 -0.19464,-0.154829 -0.23542,-0.276628 -0.01923,-0.05742 -0.02662,-0.7625098 -0.02662,-2.5389082 V 4.110636 l 0.06073,-0.1218739 c 0.1046,-0.2099063 0.346497,-0.3088665 0.557766,-0.2281823 0.12498,0.04773 0.258064,0.1884378 0.293378,0.3101822 0.01836,0.063311 0.02385,0.8045503 0.01892,2.5566483 -0.0069,2.450361 -0.0073,2.468137 -0.05581,2.561041 -0.112212,0.214859 -0.397494,0.306606 -0.612947,0.197126 z"
     id="path7" /></svg>
