<?xml version="1.0" encoding="UTF-8" standalone="no"?>
<svg
   width="800"
   height="800"
   viewBox="0 0 24 24"
   fill="none"
   version="1.1"
   id="svg1"
   xml:space="preserve"
   xmlns="http://www.w3.org/2000/svg"
   xmlns:svg="http://www.w3.org/2000/svg"><defs
     id="defs1" /><path
     style="fill:#ff5555;fill-opacity:1;stroke:#ff0000;stroke-width:0.0439881;stroke-opacity:0"
     d="m 11.887145,23.423892 c -0.08859,-0.02359 -0.240438,-0.110831 -0.337446,-0.193866 -0.346957,-0.296982 -0.318717,0.740283 -0.305282,-11.213001 l 0.01202,-10.6890619 0.105858,-0.1702906 c 0.163123,-0.26240902 0.450569,-0.42354689 0.755547,-0.42354689 0.209863,0 0.284439,0.0231163 0.461194,0.14296137 0.121754,0.0825517 0.24932,0.21731092 0.30189,0.31891242 l 0.09104,0.1759516 0.01126,10.639382 c 0.0079,7.443035 -0.0029,10.691822 -0.03574,10.813933 -0.06661,0.247369 -0.365244,0.534022 -0.624303,0.599254 -0.229413,0.05778 -0.216685,0.05778 -0.436037,-6.3e-4 z"
     id="path3" /><path
     style="fill:#ff5555;fill-opacity:1;stroke:#ff0000;stroke-width:0.0439881;stroke-opacity:0"
     d="M 6.3737728,20.34551 C 6.2293989,20.26586 6.0405702,20.075551 5.968054,19.93662 5.907644,19.820879 5.89916,18.972032 5.891652,12.291044 5.887002,8.1575833 5.899932,4.6533618 5.920373,4.503885 5.982026,4.053067 6.2902836,3.7692919 6.7183426,3.7692919 c 0.4002207,0 0.7503067,0.2785355 0.798222,0.6350821 0.013203,0.098282 0.02871,3.6221709 0.034448,7.830864 l 0.010438,7.652172 -0.1757918,0.193149 c -0.096685,0.106225 -0.2293156,0.220827 -0.2947335,0.254656 -0.1408869,0.07286 -0.5920165,0.07933 -0.7171476,0.01034 z"
     id="path4" /><path
     style="fill:#ff5555;fill-opacity:1;stroke:#ff0000;stroke-width:0.0439881;stroke-opacity:0"
     d="m 0.95022713,17.358402 c -0.2083531,-0.105873 -0.36606857,-0.291194 -0.44276532,-0.520268 -0.0361597,-0.108 -0.0500627,-1.434089 -0.0500627,-4.775049 V 7.437562 L 0.5716213,7.2083478 c 0.19672766,-0.394781 0.651675,-0.5809003 1.0490178,-0.4291536 0.235056,0.089768 0.4853551,0.3544042 0.5517705,0.5833749 0.034538,0.119072 0.044852,1.5131571 0.035576,4.8084129 -0.012977,4.608514 -0.013711,4.641946 -0.1049571,4.816676 -0.2110443,0.404095 -0.7475864,0.576648 -1.15280137,0.370744 z"
     id="path5" /><path
     style="fill:#ff5555;fill-opacity:1;stroke:#ff0000;stroke-width:0.0439881;stroke-opacity:0"
     d="m 17.150811,20.380575 c -0.167101,-0.07783 -0.398418,-0.320427 -0.459175,-0.481579 -0.03227,-0.08559 -0.04669,-2.500004 -0.04669,-7.820606 0,-7.4790393 0.0024,-7.7013888 0.08369,-7.8599743 0.335238,-0.6537024 1.213112,-0.6532996 1.548501,7.09e-4 0.08194,0.1597904 0.08377,0.3591042 0.07269,7.9247413 l -0.01129,7.760828 -0.134513,0.166183 c -0.223807,0.276516 -0.342742,0.342246 -0.64675,0.357437 -0.170226,0.0085 -0.324565,-0.0096 -0.406414,-0.04775 z"
     id="path6" /><path
     style="fill:#ff5555;fill-opacity:1;stroke:#ff0000;stroke-width:0.0439881;stroke-opacity:0"
     d="m 22.504305,17.358402 c -0.208353,-0.105867 -0.366069,-0.291194 -0.442766,-0.520268 -0.03617,-0.107992 -0.05007,-1.434089 -0.05007,-4.775049 V 7.437562 l 0.114218,-0.2292142 c 0.196727,-0.394781 0.651674,-0.5809003 1.049018,-0.4291536 0.235056,0.089768 0.485354,0.3544042 0.55177,0.5833749 0.03453,0.119072 0.04486,1.5131571 0.03558,4.8084129 -0.01298,4.608514 -0.01373,4.641946 -0.104964,4.816676 -0.211043,0.404095 -0.747587,0.576648 -1.1528,0.370744 z"
     id="path7" /></svg>
